# xmcd
#
# Track frame offsets: 
#        150
#        19212
#        34657
#        57348
#        77215
#        89221
#        106543
#        118526
#        136913
#        148255
#        159040
#        174708
#
# Disc length: 2588 seconds
#
# Revision: 0
# Processed by: cddbd v1.5.2PL0 Copyright (c) Steve Scherf et al.
# Submitted via: ExactAudioCopy v0.99pb3
#
DISCID=9c0a1a0c
DTITLE=Rattlesnakes - Let it Roll
DYEAR=2008
DGENRE=Country
TTITLE0=Let it Roll
TTITLE1=Its 5 oclock somewhere
TTITLE2=Me and Bobby Mcgee
TTITLE3=Take me home country roads
TTITLE4=Blue moon nights
TTITLE5=Tha gambler
TTITLE6=Teach your children
TTITLE7=Lodi
TTITLE8=Thats all mama
TTITLE9=On the road again
TTITLE10=When she cries
TTITLE11=You are still the one
EXTD=
EXTT0=
EXTT1=
EXTT2=
EXTT3=
EXTT4=
EXTT5=
EXTT6=
EXTT7=
EXTT8=
EXTT9=
EXTT10=
EXTT11=
PLAYORDER=
